<svg xmlns="http://www.w3.org/2000/svg" viewBox="0 0 256 256" fill="none">
  <rect width="256" height="256" rx="64" fill="#1C1917"/>
  <g transform="translate(54, 64.5) scale(1.48)" fill="white">
    <path d="M75.51 16.2832C71.0449 6.66842 61.2997 0 49.9967 0C38.6936 0 28.9486 6.66842 24.4834 16.2832C10.6708 18.0692 0 29.8742 0 44.1692C0 58.4642 10.5339 70.1192 24.2162 72.0226L21.9803 80.3598C21.2958 83.2735 22.8213 84.3817 25.3765 83.7494L34.6393 81.2658C39.0523 84.1535 44.3321 85.8288 49.9967 85.8288C60.2241 85.8288 69.1807 80.3663 74.1021 72.2051C88.5927 71.0709 100 58.9531 100 44.1692C100 29.3853 89.3292 18.0627 75.51 16.2832ZM49.9967 79.3624C43.9671 79.3624 40.5254 77.3873 35.7539 74.2715L33.5 72.2051L32.5 71L31.6146 69.4087C29.6265 65.3542 28.3488 62.4274 28.3488 57.7081C28.3488 45.8118 37.9766 36.0537 50.0032 36.0537C55.7329 36.0537 61.1955 38.2961 65.2826 42.3636C69.3762 46.4376 71.6577 51.9262 71.6577 57.7081C71.6577 69.5978 62.0363 79.3624 50.0032 79.3624H49.9967Z"/>
    <path d="M56.6562 54.1747V61.2472C56.6562 65.3343 62.8358 65.3343 62.8358 61.2472V54.1747C62.8358 50.1137 56.6562 50.1137 56.6562 54.1747Z"/>
    <path d="M37.1562 54.1747V61.2472C37.1562 65.3343 43.3358 65.3343 43.3358 61.2472V54.1747C43.3358 50.0876 37.1562 50.0876 37.1562 54.1747Z"/>
    <path d="M46.8984 50.0165V65.4131C46.8984 69.5002 53.0846 69.5002 53.0846 65.4131V50.0165C53.0846 45.9294 46.8984 45.9294 46.8984 50.0165Z"/>
  </g>
</svg>
